<svg width="208" height="96" viewBox="0 0 208 96" fill="none" xmlns="http://www.w3.org/2000/svg">
<path d="M114.701 27.4434H121.53L125.395 33.8434L130.65 27.4434H137.786L128.154 39.0146L127.584 45.2418H121.606L122.176 39.0146L114.701 27.4434Z" fill="white"/>
<path d="M159.149 49.8559C158.253 49.0623 157.094 48.6655 155.68 48.6655H144.307C142.886 48.6655 141.754 49.0623 140.909 49.8559C140.058 50.6495 139.584 51.6159 139.488 52.7679L138.605 62.5663C138.483 63.7183 138.88 64.6847 139.789 65.4783C140.698 66.2719 141.856 66.6623 143.277 66.6623H154.65C156.064 66.6623 157.197 66.2655 158.035 65.4783C158.874 64.6847 159.354 63.7183 159.475 62.5663L160.358 52.7679C160.442 51.6223 160.045 50.6495 159.149 49.8559ZM154.246 53.3439L153.453 61.9903C153.446 62.2079 153.306 62.3167 153.037 62.3167H145.056C144.787 62.3167 144.659 62.2079 144.672 61.9903L145.318 54.9631L142.682 53.0239H145.862C145.882 53.0239 145.894 53.0175 145.914 53.0175H153.888C154.157 53.0175 154.272 53.1263 154.246 53.3439Z" fill="#6080FF"/>
<path d="M200.09 28.6274C199.2 27.8338 198.054 27.4434 196.653 27.4434H181.408L179.77 45.2418H185.747L186.272 39.405H189.171L193.766 45.2418H200.627L195.456 39.405H195.578C197.306 39.405 198.598 39.0082 199.462 38.2082C200.326 37.4082 200.813 36.4546 200.928 35.3538L201.274 31.4946C201.376 30.3746 200.986 29.421 200.09 28.6274ZM195.238 32.0642L194.976 34.9826C194.97 35.1938 194.829 35.3026 194.566 35.3026H186.669L186.829 33.549L184.384 31.7442H186.995V31.7378H194.893C195.149 31.7442 195.264 31.853 195.238 32.0642Z" fill="white"/>
<path d="M114.298 52.7552L114.157 54.3552H108.115L108.198 53.3312C108.224 53.1136 108.109 53.0048 107.84 53.0048H100.474C100.454 53.0048 100.442 53.0112 100.422 53.0112H97.6064L99.904 54.7008L99.8464 55.328C99.8336 55.5456 99.9616 55.6544 100.23 55.6544H108.986C110.406 55.6544 111.565 56.0448 112.474 56.8384C113.382 57.632 113.779 58.5984 113.658 59.7504L113.421 62.5472C113.299 63.6992 112.845 64.6656 112.058 65.4592C111.27 66.2464 110.17 66.6432 108.749 66.6432H97.8368C96.416 66.6432 95.2576 66.2528 94.3488 65.4592C93.44 64.6656 93.0432 63.6992 93.1648 62.5472L93.3056 60.9472H99.3472L99.232 61.9712C99.2192 62.1888 99.3472 62.2976 99.616 62.2976H106.982C107.251 62.2976 107.392 62.1888 107.398 61.9712L107.584 59.9744C107.61 59.7568 107.494 59.648 107.226 59.648H98.4704C97.0496 59.648 95.8912 59.2576 94.9824 58.464C94.0736 57.6704 93.6768 56.704 93.7984 55.552L94.0352 52.7552C94.1312 51.6032 94.6048 50.6368 95.456 49.8432C96.3008 49.0496 97.4336 48.6528 98.8544 48.6528H109.613C111.027 48.6528 112.186 49.0496 113.082 49.8432C113.978 50.6368 114.381 51.6096 114.298 52.7552Z" fill="#6080FF"/>
<path d="M173.6 55.1296L180.64 66.6496H173.734L169.107 58.6496L168.096 59.4496L167.443 66.6496H161.408L163.066 48.6528H169.107L168.672 53.4272L174.56 48.6528H181.741L173.6 55.1296Z" fill="#6080FF"/>
<path d="M114.125 28.1346C113.6 27.6738 112.928 27.4434 112.122 27.4434H98.4959C97.0943 27.4434 96.0255 27.8338 95.2831 28.6146C94.5471 29.3954 94.1247 30.3554 94.0287 31.4946L93.1583 41.1842C93.0431 42.3234 93.4271 43.2834 94.3295 44.0642C95.2255 44.845 96.3775 45.2354 97.7791 45.2354H110.49C111.302 45.2354 112.013 45.005 112.627 44.5442C113.242 44.0834 113.574 43.5202 113.638 42.861L113.99 38.8802H108.013L107.84 40.7362C107.834 40.8706 107.75 40.9346 107.59 40.9346H99.5391C99.2767 40.9346 99.1487 40.8258 99.1551 40.6146L99.8015 33.6002L97.2799 31.7442H100.333C100.352 31.7442 100.365 31.7378 100.384 31.7378H108.435C108.595 31.7378 108.666 31.8018 108.64 31.9362L108.499 33.7922H114.477L114.829 29.8114C114.88 29.1586 114.65 28.5954 114.125 28.1346Z" fill="white"/>
<path d="M137.843 48.6592L136.192 66.6496H130.15L130.778 59.7568H119.43L121.715 61.44L121.242 66.6496H115.2L116.858 48.6592H122.899L122.272 55.4048H131.174L131.808 48.6592H137.843Z" fill="#6080FF"/>
<path d="M179.494 27.4434H163.264C162.042 27.4434 161.139 28.1666 161.043 29.2226L159.872 41.9458C159.718 43.5778 161.491 45.2418 163.386 45.2418H177.862L178.259 40.941H165.946L166.08 39.4882L164.256 38.1442H168.09H177.146L177.478 34.5346H166.534L166.63 33.485L164.275 31.7506H166.79V31.7442H179.104L179.494 27.4434Z" fill="white"/>
<path d="M188.442 53.0369H185.894L188.275 54.7905L188.179 55.8529H199.245L198.912 59.5009H185.882L187.725 60.8577L187.59 62.3233H200.038L199.635 66.6689H184.998C183.085 66.6689 181.293 64.9857 181.446 63.3345L182.63 50.4705C182.726 49.4017 183.642 48.6721 184.877 48.6721H201.286L200.89 53.0305H188.442V53.0369Z" fill="#6080FF"/>
<path d="M157.965 29.7152C157.658 29.0048 157.12 28.448 156.346 28.0448C155.571 27.6416 154.656 27.4368 153.6 27.4368H139.302L137.664 45.2352H153.971C155.008 45.2352 155.878 44.9728 156.589 44.4416C157.293 43.9168 157.837 43.2576 158.208 42.4768C158.579 41.696 158.784 40.8512 158.81 39.9552C158.835 39.0592 158.688 38.2272 158.362 37.472C157.978 36.5824 157.408 35.9232 156.653 35.4944C156.979 35.264 157.274 34.9184 157.53 34.4576C157.786 33.9968 157.978 33.4848 158.099 32.928C158.221 32.3648 158.278 31.8016 158.266 31.232C158.259 30.6688 158.157 30.1632 157.965 29.7152ZM152.691 39.3088L152.646 39.7056C152.627 40.0384 152.454 40.3264 152.134 40.5696C151.814 40.8192 151.443 40.9408 151.014 40.9408H144.032L144.186 39.3408L142.438 38.0544H144.307V38.048H151.29C151.962 38.048 152.397 38.2848 152.608 38.7648C152.672 38.912 152.698 39.0976 152.691 39.3088ZM152.243 32.9792L152.211 33.3248C152.179 33.6704 152 33.9648 151.68 34.2144C151.36 34.464 150.989 34.5856 150.56 34.5856H144.614L144.736 33.2096L142.72 31.7248H144.864V31.712H150.81C151.482 31.712 151.93 31.9744 152.16 32.5056C152.237 32.6912 152.269 32.8512 152.243 32.9792Z" fill="white"/>
<path d="M46.4128 69.677V78.5858L38.6624 74.1058V74.0994L31.008 69.6642L27.1808 67.4434L23.2064 65.1458L20.928 63.821V32.1922L27.2064 28.557L46.3936 17.4402V26.4258L34.9952 33.0626L28.6528 36.7554V59.3858L31.008 60.7554L46.4128 69.677Z" fill="white"/>
<path d="M87.3536 25.5169L87.328 70.5409L48.7808 92.7937L48.3328 93.0497L38.6688 87.4753L38.6624 78.5409L48.1664 84.0257L48.3456 84.1281L52.1728 81.9137L52.7616 81.5745L79.6224 66.0545L79.6416 29.9969L71.9424 25.5489L61.8496 19.7185L61.8368 11.4113V11.2961V10.7969L75.5392 18.7009L87.3536 25.5169Z" fill="white"/>
<path d="M58.016 8.56957V17.5104L54.5408 15.5072L48.3328 11.9296L17.088 30.0224L17.0816 66.0544L23.2064 69.6064L31.0016 74.1248L34.8416 76.3456L34.8544 85.3248L23.2 78.5792L9.27362 70.528L9.30562 25.5232L48.3264 2.98877L58.016 8.56957Z" fill="#6080FF"/>
<path d="M58.016 30.9505V44.1537L75.7504 44.1921V63.8657L50.2592 78.5793L50.2784 69.6449L68.032 59.3793L68 51.8849L50.2592 51.8977V17.4209L75.7504 32.2241V41.2353L58.016 30.9505Z" fill="#6080FF"/>
</svg>
